HIERARCHY
ROOT Hips
{
	OFFSET 0.00000 0.00000 0.00000
	CHANNELS 6 Xposition Yposition Zposition Zrotation Yrotation Xrotation 
	JOINT LHipJoint
	{
		OFFSET 0 0 0
		CHANNELS 3 Zrotation Yrotation Xrotation
		JOINT LeftUpLeg
		{
			OFFSET 1.39187 -1.60231 0.69152
			CHANNELS 3 Zrotation Yrotation Xrotation
			JOINT LeftLeg
			{
				OFFSET 2.43314 -6.68499 0.00000
				CHANNELS 3 Zrotation Yrotation Xrotation
				JOINT LeftFoot
				{
					OFFSET 2.32059 -6.37578 0.00000
					CHANNELS 3 Zrotation Yrotation Xrotation
					JOINT LeftToeBase
					{
						OFFSET 0.23021 -0.63250 1.71305
						CHANNELS 3 Zrotation Yrotation Xrotation
						End Site
						{
							OFFSET 0.00000 -0.00000 0.91647
						}
					}
				}
			}
		}
	}
	JOINT RHipJoint
	{
		OFFSET 0 0 0
		CHANNELS 3 Zrotation Yrotation Xrotation
		JOINT RightUpLeg
		{
			OFFSET -1.19407 -1.60231 0.69152
			CHANNELS 3 Zrotation Yrotation Xrotation
			JOINT RightLeg
			{
				OFFSET -2.44411 -6.71513 0.00000
				CHANNELS 3 Zrotation Yrotation Xrotation
				JOINT RightFoot
				{
					OFFSET -2.31924 -6.37207 0.00000
					CHANNELS 3 Zrotation Yrotation Xrotation
					JOINT RightToeBase
					{
						OFFSET -0.19473 -0.53502 1.87724
						CHANNELS 3 Zrotation Yrotation Xrotation
						End Site
						{
							OFFSET -0.00000 -0.00000 0.98293
						}
					}
				}
			}
		}
	}
	JOINT LowerBack
	{
		OFFSET 0 0 0
		CHANNELS 3 Zrotation Yrotation Xrotation
		JOINT Spine
		{
			OFFSET -0.01120 1.87307 0.09613
			CHANNELS 3 Zrotation Yrotation Xrotation
			JOINT Spine1
			{
				OFFSET 0.01099 1.87818 0.04834
				CHANNELS 3 Zrotation Yrotation Xrotation
				JOINT Neck
				{
					OFFSET 0 0 0
					CHANNELS 3 Zrotation Yrotation Xrotation
					JOINT Neck1
					{
						OFFSET 0.01702 1.40324 -0.12579
						CHANNELS 3 Zrotation Yrotation Xrotation
						JOINT Head
						{
							OFFSET -0.04239 1.38587 -0.01614
							CHANNELS 3 Zrotation Yrotation Xrotation
							End Site
							{
								OFFSET -0.02510 1.47031 -0.00154
							}
						}
					}
				}
				JOINT LeftShoulder
				{
					OFFSET 0 0 0
					CHANNELS 3 Zrotation Yrotation Xrotation
					JOINT LeftArm
					{
						OFFSET 2.95699 0.62343 0.11653
						CHANNELS 3 Zrotation Yrotation Xrotation
						JOINT LeftForeArm
						{
							OFFSET 4.68382 -0.00000 -0.00000
							CHANNELS 3 Zrotation Yrotation Xrotation
							JOINT LeftHand
							{
								OFFSET 2.98124 -0.00000 -0.00000
								CHANNELS 3 Zrotation Yrotation Xrotation
								JOINT LeftFingerBase
								{
									OFFSET 0 0 0
									CHANNELS 3 Zrotation Yrotation Xrotation
									JOINT LeftHandIndex1
									{
										OFFSET 0.70759 -0.00000 0.00000
										CHANNELS 3 Zrotation Yrotation Xrotation
										End Site
										{
											OFFSET 0.57048 -0.00000 0.00000
										}
									}
								}
								JOINT LThumb
								{
									OFFSET 0 0 0
									CHANNELS 3 Zrotation Yrotation Xrotation
									End Site
									{
										OFFSET 0.57919 -0.00000 0.57919
									}
								}
							}
						}
					}
				}
				JOINT RightShoulder
				{
					OFFSET 0 0 0
					CHANNELS 3 Zrotation Yrotation Xrotation
					JOINT RightArm
					{
						OFFSET -2.99027 0.88714 -0.02793
						CHANNELS 3 Zrotation Yrotation Xrotation
						JOINT RightForeArm
						{
							OFFSET -4.75876 -0.00000 -0.00000
							CHANNELS 3 Zrotation Yrotation Xrotation
							JOINT RightHand
							{
								OFFSET -2.93293 -0.00000 -0.00000
								CHANNELS 3 Zrotation Yrotation Xrotation
								JOINT RightFingerBase
								{
									OFFSET 0 0 0
									CHANNELS 3 Zrotation Yrotation Xrotation
									JOINT RightHandIndex1
									{
										OFFSET -0.83175 -0.00000 0.00000
										CHANNELS 3 Zrotation Yrotation Xrotation
										End Site
										{
											OFFSET -0.67058 -0.00000 0.00000
										}
									}
								}
								JOINT RThumb
								{
									OFFSET 0 0 0
									CHANNELS 3 Zrotation Yrotation Xrotation
									End Site
									{
										OFFSET -0.68082 -0.00000 0.68082
									}
								}
							}
						}
					}
				}
			}
		}
	}
}
MOTION
Frames: 10
Frame Time: .0083333
-10.0017 13.1930 -4.1711 12.4499 -80.2197 -349.1010 0.0000 0.0000 0.0000 -24.2646 -22.3205 -74.2800 14.4366 19.2411 73.5334 1.1030 5.8053 -22.7342 1.1629 6.8459 19.2598 0.0000 0.0000 0.0000 -12.3116 11.4672 -81.7625 -11.5061 -18.1740 64.4146 0.5927 -14.6093 -11.4382 -0.9579 6.2321 -17.4593 -1.7187 -1.3512 15.4651 7.1015 -2.1070 5.3429 8.9690 -1.2712 -2.6284 -5.4303 0.7224 -9.6368 3.0090 0.3285 -25.8013 1.9799 -0.2230 -6.3645 0.0000 0.0000 0.0000 -162.3410 -72.6220 102.6991 14.8134 -23.8855 -3.1500 -0.0000 0.0000 -10.9939 -3.6165 52.2671 -2.8616 -7.1250 0.0000 -0.0000 -72.7168 69.8595 -51.2914 0.0000 0.0000 0.0000 109.9792 53.7579 59.9128 -53.4571 54.2981 -28.9589 0.0000 -0.0000 -21.3563 -28.6963 -7.3540 4.0080 7.1250 -0.0000 -0.0000 -1.6314 -38.3451 -0.2675
-9.9679 13.2149 -4.1453 12.4207 -80.4833 -349.2740 0.0000 0.0000 0.0000 -24.6295 -21.8804 -74.0875 14.3425 19.2147 73.2479 1.0939 5.6897 -22.5836 1.0802 6.6061 18.5535 0.0000 0.0000 0.0000 -11.8409 11.1629 -82.0065 -12.4225 -18.5636 67.3220 0.5060 -14.0794 -12.1736 -0.6003 4.9598 -13.7939 -1.6745 -1.2468 15.5696 7.1413 -1.9726 5.4281 8.9680 -1.2107 -2.6158 -5.4412 0.6832 -9.8992 2.9122 0.2890 -25.3720 1.9429 -0.2264 -6.1806 -0.0000 -0.0000 0.0000 -160.1022 -72.5634 100.3923 15.2878 -24.5455 -3.3446 -0.0000 0.0000 -11.5682 -4.8653 52.7235 -3.8748 -7.1250 0.0000 -0.0000 -74.5987 69.5782 -52.6901 -0.0000 -0.0000 0.0000 109.7234 53.4830 59.9058 -53.4297 54.2884 -28.9366 0.0000 -0.0000 -20.9150 -28.5055 -7.4139 4.0086 7.1250 -0.0000 -0.0000 -1.4645 -38.3988 -0.2382
-9.9385 13.2333 -4.1268 12.3508 -80.7715 -349.3940 0.0000 0.0000 0.0000 -24.8641 -21.4641 -73.9553 14.2553 19.1897 72.9827 1.0860 5.4978 -22.3939 1.0813 6.6094 18.5632 0.0000 0.0000 0.0000 -11.2120 10.8640 -82.2225 -13.3523 -18.9057 70.2162 0.4312 -13.7579 -13.0758 -0.2947 3.4906 -9.6478 -1.7053 -1.1137 15.6306 7.1844 -1.8130 5.5239 9.0075 -1.1395 -2.5699 -5.1786 0.7227 -10.3789 2.5402 0.3148 -24.7042 1.7650 -0.2023 -5.8886 0.0000 -0.0000 0.0000 -158.1108 -72.4683 98.4702 15.7171 -25.1355 -3.5249 -0.0000 0.0000 -12.4677 -3.9781 52.7084 -3.1667 -7.1250 0.0000 -0.0000 -74.0590 69.8756 -52.5579 0.0000 -0.0000 0.0000 109.4104 53.2047 59.8717 -53.5336 54.3249 -29.0211 0.0000 -0.0000 -20.5646 -28.5354 -7.5344 4.0782 7.1250 -0.0000 -0.0000 -1.4857 -38.5375 -0.2365
-9.9089 13.2316 -4.1013 12.7060 -80.9668 -349.6520 0.0000 0.0000 0.0000 -24.9667 -21.4646 -74.1414 14.1683 19.1643 72.7178 1.0675 5.4466 -22.2025 1.1374 6.7730 19.0445 0.0000 0.0000 0.0000 -10.6467 10.2749 -82.7359 -14.2695 -19.1938 73.0260 0.3842 -13.3516 -13.1421 -0.2300 3.0867 -8.5202 -1.5458 -1.0061 15.4732 7.1355 -1.6513 5.5262 8.8218 -1.0577 -2.5180 -4.8180 0.7229 -10.4096 2.2467 0.2636 -24.4914 1.6060 -0.2348 -5.8112 -0.0000 -0.0000 0.0000 -156.3608 -72.2130 96.6982 16.2207 -25.8190 -3.7416 -0.0000 0.0000 -12.6809 -6.5931 53.2515 -5.2912 -7.1250 0.0000 -0.0000 -76.8857 69.1485 -54.3118 -0.0000 -0.0000 0.0000 109.1232 52.9691 59.6512 -53.6449 54.3638 -29.1115 0.0000 -0.0000 -20.2210 -28.7645 -7.6173 4.1618 7.1250 -0.0000 -0.0000 -1.6809 -38.6489 -0.2630
-9.8775 13.2415 -4.0815 12.9387 -81.1951 -349.8990 0.0000 0.0000 0.0000 -25.0784 -21.3758 -74.1678 14.0585 19.1317 72.3830 1.0319 5.4721 -21.9069 1.2153 6.9930 19.6947 0.0000 0.0000 0.0000 -10.0062 9.7816 -82.9786 -15.1434 -19.4248 75.6682 0.3478 -12.9289 -12.9759 -0.2261 3.0605 -8.4472 -1.4965 -0.8137 15.3850 7.0821 -1.3974 5.5711 8.6839 -0.9326 -2.4681 -4.6403 0.6160 -10.1598 2.2067 0.0980 -24.5926 1.5671 -0.3259 -5.8756 -0.0000 0.0000 0.0000 -153.9883 -71.6854 95.8446 17.0411 -26.9119 -4.1059 -0.0000 0.0000 -16.3880 2.8884 52.4706 2.2914 -7.1250 0.0000 -0.0000 -69.5694 72.1960 -51.2308 -0.0000 0.0000 0.0000 108.8545 52.8591 59.2593 -53.5706 54.3378 -29.0511 0.0000 -0.0000 -19.9256 -28.8248 -7.5025 4.1099 7.1250 -0.0000 -0.0000 -1.7372 -38.5231 -0.2772
-9.8506 13.2767 -4.0690 13.0885 -81.5007 -350.2200 0.0000 0.0000 0.0000 -25.2974 -20.9984 -73.9063 13.9236 19.0907 71.9710 0.9948 5.4522 -21.5653 1.3618 7.3863 20.8651 0.0000 0.0000 0.0000 -9.2157 9.4968 -82.8286 -15.9710 -19.6063 78.1453 0.3372 -12.7905 -12.8985 -0.1557 2.5425 -7.0076 -1.7045 -0.6450 15.3492 7.0912 -1.2174 5.6809 8.7818 -0.8533 -2.3556 -4.4500 0.6034 -10.3038 2.0549 0.0665 -24.3089 1.4818 -0.3427 -5.7594 -0.0000 -0.0000 0.0000 -151.8824 -71.4339 93.8724 17.6082 -27.6526 -4.3659 -0.0000 0.0000 -16.9985 1.0297 52.7156 0.8193 -7.1250 0.0000 -0.0000 -71.3003 71.6147 -52.1263 -0.0000 -0.0000 0.0000 108.7811 52.7213 59.2747 -53.4738 54.3040 -28.9725 0.0000 -0.0000 -19.7562 -28.8280 -7.3404 4.0224 7.1250 -0.0000 -0.0000 -1.7455 -38.3393 -0.2864
-9.8184 13.2927 -4.0356 12.9809 -81.7431 -349.9000 0.0000 0.0000 0.0000 -25.3477 -21.0232 -74.0825 13.7835 19.0471 71.5422 0.9798 5.5573 -21.4977 1.3666 7.3987 20.9020 0.0000 0.0000 0.0000 -8.4062 8.9517 -83.2174 -16.7768 -19.7491 80.5380 0.3599 -12.7279 -12.2677 -0.1522 2.5140 -6.9284 -1.4972 -0.6760 15.0342 7.0774 -1.2347 5.6749 8.6322 -0.8635 -2.1966 -4.3825 0.6661 -10.4691 1.9850 0.1556 -24.0353 1.4423 -0.2965 -5.6480 -0.0000 0.0000 0.0000 -150.1064 -71.4930 90.9118 17.9551 -28.0996 -4.5281 -0.0000 0.0000 -14.7080 -2.4276 52.8375 -1.9350 -7.1250 0.0000 -0.0000 -73.5322 70.4468 -52.7750 -0.0000 0.0000 0.0000 108.9216 52.4888 59.7111 -53.4852 54.3079 -28.9817 0.0000 -0.0000 -19.6284 -29.0113 -7.0125 3.8733 7.1250 -0.0000 -0.0000 -1.9137 -37.9799 -0.3309
-9.7881 13.3172 -4.0190 12.7455 -82.1989 -349.7730 0.0000 0.0000 0.0000 -25.4594 -20.6248 -73.9734 13.6323 18.9987 71.0783 0.9466 5.6532 -21.2593 1.3522 7.3614 20.7905 0.0000 0.0000 0.0000 -7.4046 8.7172 -83.1816 -17.5527 -19.8558 82.8280 0.3937 -12.8488 -11.7601 -0.3305 3.6946 -10.2190 -1.6505 -0.5784 15.0468 7.0852 -1.1358 5.7397 8.7142 -0.8212 -2.1464 -4.5710 0.6865 -10.0896 2.2411 0.2287 -24.1912 1.5579 -0.2572 -5.7589 -0.0000 0.0000 0.0000 -147.3081 -71.4067 89.0878 18.6010 -28.9199 -4.8364 -0.0000 0.0000 -17.8040 -0.1337 52.6556 -0.1063 -7.1250 0.0000 -0.0000 -71.7686 71.1873 -52.0442 -0.0000 0.0000 0.0000 109.1117 52.1264 60.1072 -53.4514 54.2961 -28.9543 0.0000 -0.0000 -19.3627 -28.9559 -7.1279 3.9275 7.1250 -0.0000 -0.0000 -1.8626 -38.1071 -0.3163
-9.7560 13.3433 -4.0100 12.6081 -82.5987 -349.9810 0.0000 0.0000 0.0000 -25.6509 -20.1290 -73.5874 13.4702 18.9454 70.5796 0.9531 5.6377 -21.3084 1.3156 7.2649 20.5026 0.0000 0.0000 0.0000 -6.4485 8.4713 -82.6730 -18.3080 -19.9312 85.0474 0.3458 -12.6143 -12.3283 -0.6094 4.9967 -13.8992 -1.8151 -0.4386 15.3889 7.0742 -0.9808 5.8156 8.7867 -0.7474 -2.2705 -4.5803 0.6901 -10.0629 2.2774 0.2608 -23.9314 1.5666 -0.2339 -5.6794 0.0000 -0.0000 0.0000 -145.1557 -71.2608 87.2450 19.2250 -29.6973 -5.1419 -0.0000 0.0000 -18.7492 2.3354 52.7596 1.8596 -7.1250 0.0000 -0.0000 -70.7235 72.0909 -52.1618 0.0000 -0.0000 0.0000 109.2005 51.8138 60.2343 -53.3421 54.2576 -28.8655 0.0000 -0.0000 -18.9750 -28.7905 -7.2651 3.9754 7.1250 -0.0000 -0.0000 -1.7157 -38.2511 -0.2852
-9.7146 13.3559 -3.9859 12.5910 -82.7853 -349.8120 0.0000 0.0000 0.0000 -25.6809 -20.1794 -73.6958 13.2989 18.8874 70.0515 0.9681 5.5547 -21.3908 1.5238 7.7943 22.0912 0.0000 0.0000 0.0000 -5.7455 7.8508 -82.7002 -19.0567 -19.9787 87.2410 0.1988 -11.5554 -13.2314 -0.6700 5.2343 -14.5782 -1.6341 -0.4110 15.2670 7.0532 -0.9206 5.8055 8.6407 -0.7157 -2.2305 -4.4891 0.6605 -10.6337 2.1361 0.2331 -23.3037 1.4975 -0.2393 -5.3883 -0.0000 -0.0000 0.0000 -143.9160 -71.1642 86.1824 19.7501 -30.3400 -5.4045 -0.0000 0.0000 -19.4019 3.2196 52.5988 2.5587 -7.1250 0.0000 -0.0000 -69.7703 72.3558 -51.6010 -0.0000 -0.0000 0.0000 109.2050 51.7249 60.3648 -53.3560 54.2625 -28.8768 0.0000 -0.0000 -18.7757 -28.8048 -7.3832 4.0418 7.1250 -0.0000 -0.0000 -1.7240 -38.3862 -0.2809
